<?xml version="1.0" encoding="utf-8" standalone="no"?><!DOCTYPE svg PUBLIC "-//W3C//DTD SVG 20010904//EN" "http://www.w3.org/TR/2001/REC-SVG-20010904/DTD/svg10.dtd"><svg xmlns="http://www.w3.org/2000/svg" width="500" height="348" xmlns:xlink="http://www.w3.org/1999/xlink"><source><![CDATA[Title:Case: userBuffer is true
Input layer->PixelsWorld:Read pixels
Output layer->PixelsWorld:Read pixels
Note over PixelsWorld:Do shading
PixelsWorld->Buffer:Write result pixels
Buffer->Output layer:Copy pixels]]></source><desc>Case: userBuffer is true</desc><defs><marker viewBox="0 0 5 5" markerWidth="5" markerHeight="5" orient="auto" refX="5" refY="2.5" id="markerArrowBlock"><path d="M 0 0 L 5 2.5 L 0 5 z"></path></marker><marker viewBox="0 0 9.6 16" markerWidth="4" markerHeight="16" orient="auto" refX="9.6" refY="8" id="markerArrowOpen"><path d="M 9.6,8 1.92,16 0,13.7 5.76,8 0,2.286 1.92,0 9.6,8 z"></path></marker></defs><g class="title"><rect x="10" y="10" width="202" height="26" stroke="#000000" fill="#ffffff" style="stroke-width: 2;"></rect><text x="15" y="29" style="font-size: 16px; font-family: &quot;Andale Mono&quot;, monospace;"><tspan x="15">Case: userBuffer is true</tspan></text></g><g class="actor"><rect x="10" y="46" width="108" height="36" stroke="#000000" fill="#ffffff" style="stroke-width: 2;"></rect><text x="20" y="70" style="font-size: 16px; font-family: &quot;Andale Mono&quot;, monospace;"><tspan x="20">Input layer</tspan></text></g><g class="actor"><rect x="10" y="292" width="108" height="36" stroke="#000000" fill="#ffffff" style="stroke-width: 2;"></rect><text x="20" y="316" style="font-size: 16px; font-family: &quot;Andale Mono&quot;, monospace;"><tspan x="20">Input layer</tspan></text></g><line x1="64" x2="64" y1="82" y2="292" stroke="#000000" fill="none" style="stroke-width: 2;"></line><g class="actor"><rect x="138" y="46" width="108" height="36" stroke="#000000" fill="#ffffff" style="stroke-width: 2;"></rect><text x="148" y="70" style="font-size: 16px; font-family: &quot;Andale Mono&quot;, monospace;"><tspan x="148">PixelsWorld</tspan></text></g><g class="actor"><rect x="138" y="292" width="108" height="36" stroke="#000000" fill="#ffffff" style="stroke-width: 2;"></rect><text x="148" y="316" style="font-size: 16px; font-family: &quot;Andale Mono&quot;, monospace;"><tspan x="148">PixelsWorld</tspan></text></g><line x1="192" x2="192" y1="82" y2="292" stroke="#000000" fill="none" style="stroke-width: 2;"></line><g class="actor"><rect x="266" y="46" width="116" height="36" stroke="#000000" fill="#ffffff" style="stroke-width: 2;"></rect><text x="276" y="70" style="font-size: 16px; font-family: &quot;Andale Mono&quot;, monospace;"><tspan x="276">Output layer</tspan></text></g><g class="actor"><rect x="266" y="292" width="116" height="36" stroke="#000000" fill="#ffffff" style="stroke-width: 2;"></rect><text x="276" y="316" style="font-size: 16px; font-family: &quot;Andale Mono&quot;, monospace;"><tspan x="276">Output layer</tspan></text></g><line x1="324" x2="324" y1="82" y2="292" stroke="#000000" fill="none" style="stroke-width: 2;"></line><g class="actor"><rect x="402" y="46" width="68" height="36" stroke="#000000" fill="#ffffff" style="stroke-width: 2;"></rect><text x="412" y="70" style="font-size: 16px; font-family: &quot;Andale Mono&quot;, monospace;"><tspan x="412">Buffer</tspan></text></g><g class="actor"><rect x="402" y="292" width="68" height="36" stroke="#000000" fill="#ffffff" style="stroke-width: 2;"></rect><text x="412" y="316" style="font-size: 16px; font-family: &quot;Andale Mono&quot;, monospace;"><tspan x="412">Buffer</tspan></text></g><line x1="436" x2="436" y1="82" y2="292" stroke="#000000" fill="none" style="stroke-width: 2;"></line><g class="signal"><text x="84" y="113" style="font-size: 16px; font-family: &quot;Andale Mono&quot;, monospace;"><tspan x="84">Read pixels</tspan></text><line x1="64" x2="192" y1="118" y2="118" stroke="#000000" fill="none" style="stroke-width: 2; marker-end: url(&quot;#markerArrowBlock&quot;);"></line></g><g class="signal"><text x="214" y="149" style="font-size: 16px; font-family: &quot;Andale Mono&quot;, monospace;"><tspan x="214">Read pixels</tspan></text><line x1="324" x2="192" y1="154" y2="154" stroke="#000000" fill="none" style="stroke-width: 2; marker-end: url(&quot;#markerArrowBlock&quot;);"></line></g><g class="note"><rect x="147" y="174" width="90" height="26" stroke="#000000" fill="#ffffff" style="stroke-width: 2;"></rect><text x="152" y="193" style="font-size: 16px; font-family: &quot;Andale Mono&quot;, monospace;"><tspan x="152">Do shading</tspan></text></g><g class="signal"><text x="238" y="231" style="font-size: 16px; font-family: &quot;Andale Mono&quot;, monospace;"><tspan x="238">Write result pixels</tspan></text><line x1="192" x2="436" y1="236" y2="236" stroke="#000000" fill="none" style="stroke-width: 2; marker-end: url(&quot;#markerArrowBlock&quot;);"></line></g><g class="signal"><text x="336" y="267" style="font-size: 16px; font-family: &quot;Andale Mono&quot;, monospace;"><tspan x="336">Copy pixels</tspan></text><line x1="436" x2="324" y1="272" y2="272" stroke="#000000" fill="none" style="stroke-width: 2; marker-end: url(&quot;#markerArrowBlock&quot;);"></line></g></svg>