<?xml version="1.0" encoding="utf-8" standalone="no"?><!DOCTYPE svg PUBLIC "-//W3C//DTD SVG 20010904//EN" "http://www.w3.org/TR/2001/REC-SVG-20010904/DTD/svg10.dtd"><svg xmlns="http://www.w3.org/2000/svg" width="452" height="276" xmlns:xlink="http://www.w3.org/1999/xlink"><source><![CDATA[Title:Case: userBuffer is false
Input layer->PixelsWorld:Read pixels 
Note over PixelsWorld:Do shading
PixelsWorld->Output layer:Write result pixels
]]></source><desc>Case: userBuffer is false</desc><defs><marker viewBox="0 0 5 5" markerWidth="5" markerHeight="5" orient="auto" refX="5" refY="2.5" id="markerArrowBlock"><path d="M 0 0 L 5 2.5 L 0 5 z"></path></marker><marker viewBox="0 0 9.6 16" markerWidth="4" markerHeight="16" orient="auto" refX="9.6" refY="8" id="markerArrowOpen"><path d="M 9.6,8 1.92,16 0,13.7 5.76,8 0,2.286 1.92,0 9.6,8 z"></path></marker></defs><g class="title"><rect x="10" y="10" width="210" height="26" stroke="#000000" fill="#ffffff" style="stroke-width: 2;"></rect><text x="15" y="29" style="font-size: 16px; font-family: &quot;Andale Mono&quot;, monospace;"><tspan x="15">Case: userBuffer is false</tspan></text></g><g class="actor"><rect x="10" y="46" width="108" height="36" stroke="#000000" fill="#ffffff" style="stroke-width: 2;"></rect><text x="20" y="70" style="font-size: 16px; font-family: &quot;Andale Mono&quot;, monospace;"><tspan x="20">Input layer</tspan></text></g><g class="actor"><rect x="10" y="220" width="108" height="36" stroke="#000000" fill="#ffffff" style="stroke-width: 2;"></rect><text x="20" y="244" style="font-size: 16px; font-family: &quot;Andale Mono&quot;, monospace;"><tspan x="20">Input layer</tspan></text></g><line x1="64" x2="64" y1="82" y2="220" stroke="#000000" fill="none" style="stroke-width: 2;"></line><g class="actor"><rect x="138" y="46" width="108" height="36" stroke="#000000" fill="#ffffff" style="stroke-width: 2;"></rect><text x="148" y="70" style="font-size: 16px; font-family: &quot;Andale Mono&quot;, monospace;"><tspan x="148">PixelsWorld</tspan></text></g><g class="actor"><rect x="138" y="220" width="108" height="36" stroke="#000000" fill="#ffffff" style="stroke-width: 2;"></rect><text x="148" y="244" style="font-size: 16px; font-family: &quot;Andale Mono&quot;, monospace;"><tspan x="148">PixelsWorld</tspan></text></g><line x1="192" x2="192" y1="82" y2="220" stroke="#000000" fill="none" style="stroke-width: 2;"></line><g class="actor"><rect x="306" y="46" width="116" height="36" stroke="#000000" fill="#ffffff" style="stroke-width: 2;"></rect><text x="316" y="70" style="font-size: 16px; font-family: &quot;Andale Mono&quot;, monospace;"><tspan x="316">Output layer</tspan></text></g><g class="actor"><rect x="306" y="220" width="116" height="36" stroke="#000000" fill="#ffffff" style="stroke-width: 2;"></rect><text x="316" y="244" style="font-size: 16px; font-family: &quot;Andale Mono&quot;, monospace;"><tspan x="316">Output layer</tspan></text></g><line x1="364" x2="364" y1="82" y2="220" stroke="#000000" fill="none" style="stroke-width: 2;"></line><g class="signal"><text x="84" y="113" style="font-size: 16px; font-family: &quot;Andale Mono&quot;, monospace;"><tspan x="84">Read pixels</tspan></text><line x1="64" x2="192" y1="118" y2="118" stroke="#000000" fill="none" style="stroke-width: 2; marker-end: url(&quot;#markerArrowBlock&quot;);"></line></g><g class="note"><rect x="147" y="138" width="90" height="26" stroke="#000000" fill="#ffffff" style="stroke-width: 2;"></rect><text x="152" y="157" style="font-size: 16px; font-family: &quot;Andale Mono&quot;, monospace;"><tspan x="152">Do shading</tspan></text></g><g class="signal"><text x="202" y="195" style="font-size: 16px; font-family: &quot;Andale Mono&quot;, monospace;"><tspan x="202">Write result pixels</tspan></text><line x1="192" x2="364" y1="200" y2="200" stroke="#000000" fill="none" style="stroke-width: 2; marker-end: url(&quot;#markerArrowBlock&quot;);"></line></g></svg>